<svg xmlns="http://www.w3.org/2000/svg" viewBox="0 0 512 512"><!--! Font Awesome Pro 6.4.0 by @fontawesome - https://fontawesome.com License - https://fontawesome.com/license (Commercial License) Copyright 2023 Fonticons, Inc. --><path fill="#4facfe" d="M496 224c17.7 0 32-14.3 32-32s-14.3-32-32-32c-39.7 0-77.1-13.8-107.4-39.6L378.3 102c-8-12.7-22.1-20.6-37.1-20.9s-29.3 6.9-38.2 19L278.4 133.5 256 96 278.4 58.5l24.6 33.5c8.8 12 23.2 19.3 38.2 19s29.1-8.2 37.1-20.9l10.3-18.4C417.1 46.2 379.7 32 340 32c-17.7 0-32-14.3-32-32s14.3-32 32-32c52.9 0 102.6 20.3 140.6 57.4l4.7 4.7 4.7-4.7C526.6 20.3 576.3 0 629.1 0c17.7 0 32 14.3 32 32s-14.3 32-32 32c-39.7 0-77.1 13.8-107.4 39.6l-10.3 18.4c-8 12.7-22.1 20.6-37.1 20.9s-29.3-6.9-38.2-19l-24.6-33.5L389.6 133.5l24.6 33.5c8.8 12 23.2 19.3 38.2 19s29.1-8.2 37.1-20.9l10.3-18.4c30.3-25.8 67.7-39.6 107.4-39.6c17.7 0 32 14.3 32 32s-14.3 32-32 32c-52.9 0-102.6 20.3-140.6 57.4l-4.7 4.7-4.7-4.7C418.9 20.3 369.2 0 316.3 0c-17.7 0-32 14.3-32 32s14.3 32 32 32c39.7 0 77.1 13.8 107.4 39.6l10.3 18.4c8 12.7 22.1 20.6 37.1 20.9s29.3-6.9 38.2-19l24.6-33.5L556 133.5l-24.6 33.5c-8.8 12-23.2 19.3-38.2 19s-29.1-8.2-37.1-20.9l-10.3-18.4C417.1 120.3 379.7 134.1 340 134.1c-17.7 0-32-14.3-32-32zM256 224a32 32 0 1 1 0-64 32 32 0 1 1 0 64z"/></svg>
